<mxfile host="app.diagrams.net" modified="2024-01-17T20:04:23.737Z" agent="Mozilla/5.0 (Windows NT 10.0; Win64; x64) AppleWebKit/537.36 (KHTML, like Gecko) Chrome/120.0.0.0 Safari/537.36 Edg/120.0.0.0" version="22.1.21" etag="qgYZKeWf6QTMHnGT7VbW" type="github">
  <diagram name="第 1 页" id="BQ-xIXkzpZvSlb03A_g6">
    <mxGraphModel>
      <root>
        <mxCell id="0" />
        <mxCell id="1" parent="0" />
      </root>
    </mxGraphModel>
  </diagram>
</mxfile>
